<?xml version="1.0" standalone="no"?><!DOCTYPE svg PUBLIC "-//W3C//DTD SVG 1.1//EN" "http://www.w3.org/Graphics/SVG/1.1/DTD/svg11.dtd"><svg t="1611048522636" class="icon" viewBox="0 0 1024 1024" version="1.1" xmlns="http://www.w3.org/2000/svg" p-id="9096" xmlns:xlink="http://www.w3.org/1999/xlink" width="200" height="200"><defs><style type="text/css"></style></defs><path d="M512 0.324873C229.409787 0.324873 0.324873 229.409787 0.324873 512S229.409787 1023.675127 512 1023.675127 1023.675127 794.590213 1023.675127 512C1023.368447 229.537137 794.462863 0.631553 512 0.324873z m0 911.995452C290.909563 912.320325 111.679675 733.090437 111.679675 512 111.679675 290.909563 290.909563 111.679675 512 111.679675c221.090437 0 400.320325 179.229888 400.320325 400.320325-0.30668 220.963086-179.355939 400.013645-400.320325 400.320325z" fill="#2c2c2c" p-id="9097"></path><path d="M589.530315 356.939371L512 434.469685l-77.530315-77.530314c-21.409137-21.410437-56.121178-21.410437-77.530314 0-21.410437 21.409137-21.410437 56.121178 0 77.530314L434.469685 512l-77.530314 77.530315c-21.410437 21.409137-21.410437 56.121178 0 77.530314 21.409137 21.410437 56.121178 21.410437 77.530314 0L512 589.530315l77.530315 77.530314c21.409137 21.410437 56.121178 21.410437 77.530314 0 21.410437-21.409137 21.410437-56.121178 0-77.530314L589.530315 512l77.530314-77.530315c21.410437-21.409137 21.410437-56.121178 0-77.530314-21.409137-21.410437-56.121178-21.410437-77.530314 0z" fill="#2c2c2c" p-id="9098"></path></svg>