<?xml version="1.0" standalone="no"?><!DOCTYPE svg PUBLIC "-//W3C//DTD SVG 1.1//EN" "http://www.w3.org/Graphics/SVG/1.1/DTD/svg11.dtd"><svg t="1610963347480" class="icon" viewBox="0 0 1024 1024" version="1.1" xmlns="http://www.w3.org/2000/svg" p-id="13161" xmlns:xlink="http://www.w3.org/1999/xlink" width="200" height="200"><defs><style type="text/css"></style></defs><path d="M512 0.324873C229.409787 0.324873 0.324873 229.409787 0.324873 512S229.409787 1023.675127 512 1023.675127 1023.675127 794.590213 1023.675127 512C1023.368447 229.537137 794.462863 0.631553 512 0.324873z m0 911.995452C290.909563 912.320325 111.679675 733.090437 111.679675 512 111.679675 290.909563 290.909563 111.679675 512 111.679675c221.090437 0 400.320325 179.229888 400.320325 400.320325-0.30668 220.963086-179.355939 400.013645-400.320325 400.320325z" fill="#2c2c2c" p-id="13162"></path><path d="M236.97803 621.866883c-22.161543-22.945137-25.518132-73.174416 4.134985-98.673056 29.654416-25.49864 62.734294-14.350294 85.679432 7.80995l73.26538 71.160203 280.058802-286.15732c14.681665-15.201462 47.007838-29.042355 69.704772-20.86465 22.695635 8.177706 31.20601 19.261076 37.806132 38.839229 6.601421 19.576853 0 47.23135-18.589239 70.164791L436.619046 738.821198c-22.83468 22.828183-59.850721 22.828183-82.686701 0l-116.954315-116.954315z" fill="#2c2c2c" p-id="13163"></path></svg>